<svg xmlns="http://www.w3.org/2000/svg" viewBox="0 0 12.56 23.57"><defs><style>.cls-1{fill:#ff9e16;}</style></defs><title>Asset 1</title><g id="Layer_2" data-name="Layer 2"><g id="Layer_1-2" data-name="Layer 1"><path class="cls-1" d="M12.43,0l-.51,4a2.64,2.64,0,0,0-3.26.56A3.42,3.42,0,0,0,8.13,8a.73.73,0,0,0,.22.35c.21.16.51.07.76,0a3.41,3.41,0,0,1,2.71.5l-.65,3.41a.92.92,0,0,1-.24.55.92.92,0,0,1-.6.15L8.13,13,7.65,23.13l-2.89.41c-.42.06-.92.08-1.17-.25a1.2,1.2,0,0,1-.15-.78L3.72,15a3.09,3.09,0,0,0-.12-1.22c-.47-1.24-2.15-1.34-3.47-1.23A19.49,19.49,0,0,1,0,9L3.3,8.53c.5-1.94-.39-4.17.62-5.89A5,5,0,0,1,6.8.68a13.85,13.85,0,0,1,5.76-.6"/></g></g></svg>