<svg xmlns="http://www.w3.org/2000/svg" viewBox="0 0 31.06 31.43"><defs><style>.cls-1{fill:#ff9e16;}</style></defs><title>Asset 2</title><g id="Layer_2" data-name="Layer 2"><g id="Layer_1-2" data-name="Layer 1"><path class="cls-1" d="M4.32,3.45C10.94,1.72,21.14-.44,26.48,4.69c2.37,2.28,2.64,3,2.81,6.11.08,1.42,0,2.85.06,4.26,0,2.67.81,7.23-.39,9.75-2.25,4.76-7.53,4.83-12,5.05-3.08.16-7.34.64-10.28-.4-5.64-2-5-7.39-5.15-11.94C1.43,13.73.23,6.77,4,4.34c.74-.47.05-1.65-.69-1.18C-.3,5.5,0,9.15.06,13.12c.1,4.28-.67,10.1,1.47,14,2,3.71,6.1,4,9.91,4.12,4.55.15,11.32.62,15.49-1.74,3.11-1.77,3.72-5.11,3.84-8.43.18-4.63,1-11.61-1.28-15.91C25.29-2.81,10.77.36,4,2.13a.68.68,0,0,0,.36,1.31Z"/><path class="cls-1" d="M22.84,7.83a.68.68,0,0,0,0-1.36.68.68,0,0,0,0,1.36Z"/><path class="cls-1" d="M11.64,11c2-.75,5-1.88,7-.6,1.31.84,2.15,3.1,2.44,4.52a4.27,4.27,0,0,1-2.12,5c-2.3,1.43-6.85,2.71-8.4-.29-1.3-2.52-1.66-6.63.5-8.68.64-.6-.33-1.57-1-1-2.74,2.59-2.32,7.85-.48,10.91,2,3.38,7.27,1.75,10,.21,3.8-2.13,3.31-6.3,1.52-9.71-2-3.91-6.42-3-9.92-1.72-.81.31-.46,1.62.36,1.31Z"/></g></g></svg>